<?xml version="1.0" standalone="no"?>
<!DOCTYPE svg PUBLIC "-//W3C//DTD SVG 20010904//EN"
 "http://www.w3.org/TR/2001/REC-SVG-20010904/DTD/svg10.dtd">
<svg version="1.0" xmlns="http://www.w3.org/2000/svg"
 width="63.000000pt" height="64.000000pt" viewBox="0 0 63.000000 64.000000"
 preserveAspectRatio="xMidYMid meet">

<g transform="translate(0.000000,64.000000) scale(0.100000,-0.100000)"
fill="#000000" stroke="none">
<path d="M410 521 c-28 -29 -50 -48 -50 -42 0 6 -7 11 -15 11 -8 0 -15 -9 -15
-20 0 -11 -4 -20 -9 -20 -5 0 -7 -10 -3 -22 3 -14 2 -19 -7 -14 -6 4 -9 11 -7
15 3 4 0 13 -5 21 -15 25 -29 -8 -27 -63 1 -29 -4 -52 -12 -60 -10 -10 -11 -9
-5 1 5 9 1 12 -11 10 -12 -2 -19 4 -21 17 -1 11 0 14 3 8 3 -7 12 -13 20 -13
8 0 14 6 14 13 0 25 -13 57 -22 57 -5 0 -7 -4 -4 -9 3 -5 -5 -16 -19 -25 -25
-16 -25 -17 -8 -43 17 -26 17 -27 -1 -20 -15 6 -17 5 -8 -6 7 -8 8 -18 4 -23
-4 -5 2 -1 13 8 20 16 21 16 33 -3 10 -15 10 -24 2 -34 -16 -20 -2 -61 27 -74
13 -6 29 -9 34 -6 5 4 9 -1 9 -10 0 -11 5 -15 14 -12 11 4 13 1 9 -11 -6 -15
-5 -15 10 -3 19 15 22 5 7 -33 -5 -14 -17 -26 -25 -26 -9 0 -19 -10 -24 -22
-8 -22 -8 -22 -26 5 -9 15 -21 24 -26 21 -5 -3 -9 0 -9 5 0 6 -5 11 -11 11
-15 0 -6 -75 11 -95 10 -12 47 -15 196 -15 l184 0 -1 28 c-1 28 -16 56 -62
115 -25 31 -29 47 -32 111 -2 41 -10 87 -19 104 -9 17 -20 67 -25 112 -5 45
-14 87 -20 93 -8 8 -25 -3 -61 -42z m-10 -115 c6 -8 17 -13 25 -10 14 6 31
-13 21 -23 -3 -3 -28 3 -55 13 -33 12 -47 21 -38 26 18 12 33 10 47 -6z m-30
-60 c0 -6 5 -5 12 2 7 7 19 12 28 12 10 -1 6 -8 -14 -24 -20 -17 -24 -25 -15
-29 8 -3 2 -6 -13 -6 -21 -1 -28 -6 -28 -21 0 -13 -7 -20 -19 -20 -28 0 -51
11 -51 24 0 17 37 36 57 30 15 -5 16 -4 3 5 -10 7 -11 11 -3 11 7 0 10 6 7 13
-3 8 3 13 16 13 11 0 20 -5 20 -10z m-49 -96 c18 0 19 -2 9 -15 -16 -19 -54
-19 -70 0 -17 20 -4 38 20 25 10 -5 29 -10 41 -10z"/>
<path d="M174 534 c3 -9 6 -21 6 -27 0 -7 5 -6 10 3 8 12 10 10 9 -10 -4 -52
0 -62 22 -55 13 4 25 2 29 -5 6 -9 13 -4 24 18 16 30 15 31 -12 49 -26 19 -77
43 -89 43 -3 0 -2 -7 1 -16z"/>
</g>
</svg>
